<svg width="21" height="20" viewBox="0 0 21 20" fill="none" xmlns="http://www.w3.org/2000/svg">
<path fill-rule="evenodd" clip-rule="evenodd" d="M10.5 17.5C11.4849 17.5 12.4602 17.306 13.3701 16.9291C14.2801 16.5522 15.1069 15.9997 15.8033 15.3033C16.4997 14.6069 17.0522 13.7801 17.4291 12.8701C17.806 11.9602 18 10.9849 18 10C18 9.01509 17.806 8.03982 17.4291 7.12987C17.0522 6.21993 16.4997 5.39314 15.8033 4.6967C15.1069 4.00026 14.2801 3.44781 13.3701 3.0709C12.4602 2.69399 11.4849 2.5 10.5 2.5C8.51088 2.5 6.60322 3.29018 5.1967 4.6967C3.79018 6.10322 3 8.01088 3 10C3 11.9891 3.79018 13.8968 5.1967 15.3033C6.60322 16.7098 8.51088 17.5 10.5 17.5ZM10.3067 13.0333L14.4733 8.03333L13.1933 6.96667L9.61 11.2658L7.75583 9.41083L6.5775 10.5892L9.0775 13.0892L9.7225 13.7342L10.3067 13.0333Z" fill="#898989"/>
</svg>
